<svg width="100" height="60" viewBox="0 0 100 60" fill="none" xmlns="http://www.w3.org/2000/svg">
  <path d="M90 20L75 15L60 20L45 15L30 20L15 15V25L30 30L45 25L60 30L75 25L90 30V20Z" fill="#F59E0B"/>
  <path d="M75 25V40L60 45V30L75 25Z" fill="#F59E0B"/>
  <path d="M45 25V40L60 45V30L45 25Z" fill="#F59E0B"/>
  <path d="M30 30V45L45 40V25L30 30Z" fill="#F59E0B"/>
  <circle cx="30" cy="45" r="5" fill="#F59E0B" stroke="#D97706" stroke-width="2"/>
  <path d="M15 15L10 10H25L30 15H15Z" fill="#F59E0B"/>
</svg>
