<svg width="80" height="80" viewBox="0 0 80 80" fill="none" xmlns="http://www.w3.org/2000/svg">
  <path d="M40 5C21.25 5 5 21.25 5 40C5 58.75 21.25 75 40 75C58.75 75 75 58.75 75 40C75 21.25 58.75 5 40 5ZM40 70C23.75 70 10 56.25 10 40C10 23.75 23.75 10 40 10C56.25 10 70 23.75 70 40C70 56.25 56.25 70 40 70Z" fill="white" fill-opacity="0.8"/>
  <path d="M52.5 27.5C52.5 30.25 50.25 32.5 47.5 32.5C44.75 32.5 42.5 30.25 42.5 27.5C42.5 24.75 44.75 22.5 47.5 22.5C50.25 22.5 52.5 24.75 52.5 27.5Z" fill="white" fill-opacity="0.8"/>
  <path d="M37.5 22.5C37.5 25.25 35.25 27.5 32.5 27.5C29.75 27.5 27.5 25.25 27.5 22.5C27.5 19.75 29.75 17.5 32.5 17.5C35.25 17.5 37.5 19.75 37.5 22.5Z" fill="white" fill-opacity="0.8"/>
  <path d="M25 32.5C25 35.25 22.75 37.5 20 37.5C17.25 37.5 15 35.25 15 32.5C15 29.75 17.25 27.5 20 27.5C22.75 27.5 25 29.75 25 32.5Z" fill="white" fill-opacity="0.8"/>
  <path d="M65 32.5C65 35.25 62.75 37.5 60 37.5C57.25 37.5 55 35.25 55 32.5C55 29.75 57.25 27.5 60 27.5C62.75 27.5 65 29.75 65 32.5Z" fill="white" fill-opacity="0.8"/>
  <path d="M40 60C33.75 60 28.75 55 28.75 48.75C28.75 42.5 40 27.5 40 27.5C40 27.5 51.25 42.5 51.25 48.75C51.25 55 46.25 60 40 60Z" fill="white" fill-opacity="0.8"/>
</svg>
