<svg width="80" height="60" viewBox="0 0 80 60" fill="none" xmlns="http://www.w3.org/2000/svg">
  <ellipse cx="40" cy="30" rx="25" ry="20" fill="#FFC0CB"/>
  <circle cx="30" cy="25" r="2" fill="black"/>
  <circle cx="50" cy="25" r="2" fill="black"/>
  <ellipse cx="40" cy="35" rx="5" ry="3" fill="#FF9999"/>
  <rect x="20" y="40" width="5" height="15" fill="#FFC0CB"/>
  <rect x="25" y="40" width="5" height="15" fill="#FFC0CB"/>
  <rect x="50" y="40" width="5" height="15" fill="#FFC0CB"/>
  <rect x="55" y="40" width="5" height="15" fill="#FFC0CB"/>
  <path d="M15 25C15 20 20 15 25 15L20 10C15 10 10 15 10 20L15 25Z" fill="#FFC0CB"/>
  <path d="M65 25C65 20 60 15 55 15L60 10C65 10 70 15 70 20L65 25Z" fill="#FFC0CB"/>
</svg>
