<svg width="100" height="150" viewBox="0 0 100 150" fill="none" xmlns="http://www.w3.org/2000/svg">
  <path d="M50 30L30 60L20 50L40 20L50 30Z" fill="#10B981"/>
  <path d="M50 30L70 60L80 50L60 20L50 30Z" fill="#10B981"/>
  <path d="M50 40L30 70L20 60L40 30L50 40Z" fill="#10B981"/>
  <path d="M50 40L70 70L80 60L60 30L50 40Z" fill="#10B981"/>
  <path d="M50 50L30 80L20 70L40 40L50 50Z" fill="#10B981"/>
  <path d="M50 50L70 80L80 70L60 40L50 50Z" fill="#10B981"/>
  <rect x="45" y="80" width="10" height="70" fill="#8B4513"/>
</svg>
